Running ffmpeg command:
ffmpeg -y -i jobs/235a6b85-d179-44b8-a011-25110bfdae99/77014.mp4 -i jobs/235a6b85-d179-44b8-a011-25110bfdae99/overlay_img_1764389054586_1.jpeg -filter_complex '[1:v]scale=160:160[ov1];[0:v][ov1]overlay=17:201:enable='"'"'between(t,0,5)'"'"'[tmp1];drawtext=text='"'"'Hello'"'"':x=217:y=277:fontsize=24:fontcolor=white:box=1:boxcolor=black@0.5:boxborderw=10:enable='"'"'between(t,0,5)'"'"'' -map '[tmp1]' -map '0:a?' -c:v libx264 -preset fast -c:a copy jobs/235a6b85-d179-44b8-a011-25110bfdae99/rendered.mp4

ffmpeg version 8.0.1 Copyright (c) 2000-2025 the FFmpeg developers
  built with Apple clang version 17.0.0 (clang-1700.4.4.1)
  configuration: --prefix=/opt/homebrew/Cellar/ffmpeg/8.0.1 --enable-shared --enable-pthreads --enable-version3 --cc=clang --host-cflags= --host-ldflags= --enable-ffplay --enable-gnutls --enable-gpl --enable-libaom --enable-libaribb24 --enable-libbluray --enable-libdav1d --enable-libharfbuzz --enable-libjxl --enable-libmp3lame --enable-libopus --enable-librav1e --enable-librist --enable-librubberband --enable-libsnappy --enable-libsrt --enable-libssh --enable-libsvtav1 --enable-libtesseract --enable-libtheora --enable-libvidstab --enable-libvmaf --enable-libvorbis --enable-libvpx --enable-libwebp --enable-libx264 --enable-libx265 --enable-libxml2 --enable-libxvid --enable-lzma --enable-libfontconfig --enable-libfreetype --enable-frei0r --enable-libass --enable-libopencore-amrnb --enable-libopencore-amrwb --enable-libopenjpeg --enable-libspeex --enable-libsoxr --enable-libzmq --enable-libzimg --disable-libjack --disable-indev=jack --enable-videotoolbox --enable-audiotoolbox --enable-neon
  libavutil      60.  8.100 / 60.  8.100
  libavcodec     62. 11.100 / 62. 11.100
  libavformat    62.  3.100 / 62.  3.100
  libavdevice    62.  1.100 / 62.  1.100
  libavfilter    11.  4.100 / 11.  4.100
  libswscale      9.  1.100 /  9.  1.100
  libswresample   6.  1.100 /  6.  1.100
Input #0, mov,mp4,m4a,3gp,3g2,mj2, from 'jobs/235a6b85-d179-44b8-a011-25110bfdae99/77014.mp4':
  Metadata:
    major_brand     : mp42
    minor_version   : 0
    compatible_brands: mp42isom
  Duration: 00:00:20.35, start: 0.000000, bitrate: 1624 kb/s
  Stream #0:0[0x1](und): Video: h264 (High) (avc1 / 0x31637661), yuv420p(tv, bt709, progressive), 478x850, 1494 kb/s, 30 fps, 30 tbr, 90k tbn (default)
    Metadata:
      vendor_id       : [0][0][0][0]
  Stream #0:1[0x2](und): Audio: aac (LC) (mp4a / 0x6134706D), 44100 Hz, stereo, fltp, 128 kb/s (default)
    Metadata:
      vendor_id       : [0][0][0][0]
Input #1, image2, from 'jobs/235a6b85-d179-44b8-a011-25110bfdae99/overlay_img_1764389054586_1.jpeg':
  Duration: 00:00:00.04, start: 0.000000, bitrate: 28436 kb/s
  Stream #1:0: Video: mjpeg (Baseline), yuvj420p(pc, bt470bg/unknown/unknown), 1280x720 [SAR 96:96 DAR 16:9], 25 fps, 25 tbr, 25 tbn
[fc#0 @ 0x7acc40000] Cannot find an unused video input stream to feed the unlabeled input pad drawtext:default.
Error binding filtergraph inputs/outputs: Invalid argument

--- STDOUT ---

--- STDERR ---
